<?xml version="1.0" encoding="UTF-8" standalone="no"?>
<svg width="191px" height="79px" viewBox="0 0 191 79" version="1.1" xmlns="http://www.w3.org/2000/svg" xmlns:xlink="http://www.w3.org/1999/xlink">
    <!-- Generator: Sketch 46 (44423) - http://www.bohemiancoding.com/sketch -->
    <title>Logo</title>
    <desc>Created with Sketch.</desc>
    <defs></defs>
    <g id="Page-1" stroke="none" stroke-width="1" fill="none" fill-rule="evenodd">
        <g id="01-Landing" transform="translate(-142.000000, -359.000000)" fill="#000000">
            <g id="Logo" transform="translate(142.989796, 359.000000)">
                <path d="M0.271655329,50.0659864 L0.271655329,46.1340136 L10.5959184,46.1340136 L10.5959184,50.7099773 C10.5959184,54.8981859 12.2058957,56.993424 15.4235828,56.993424 L15.4643991,56.993424 C18.6526077,56.993424 20.2489796,54.9049887 20.2489796,50.7303855 C20.2489796,48.344898 19.5619048,46.1090703 18.18322,44.0206349 C16.8068027,41.9321995 15.1605442,40.0229025 13.2444444,38.2927438 L8.06984127,32.9253968 C5.93151927,31.0478458 4.14240363,28.7213152 2.70249433,25.9480726 C1.26031746,23.1725624 0.539229025,20.1 0.539229025,16.7303855 C0.539229025,11.5444444 1.89977324,7.56712018 4.62086168,4.79387755 C7.33968254,2.02063492 11.0358277,0.635147392 15.7047619,0.635147392 C20.3736961,0.635147392 23.9587302,2.02063492 26.4621315,4.79160998 C28.9655329,7.56258503 30.2172336,11.5399093 30.2172336,16.7235828 L30.2172336,18.7802721 L20.6956916,18.7802721 L20.6956916,16.1 C20.6956916,11.8981859 19.0131519,9.79614512 15.645805,9.79614512 C12.278458,9.79614512 10.5959184,11.9004535 10.5959184,16.1045351 C10.5959184,17.8641723 10.9632653,19.5421769 11.6956916,21.1385488 C12.4281179,22.7349206 13.3782313,24.1725624 14.5460317,25.4560091 C15.7138322,26.7371882 17.0018141,28.0047619 18.4077098,29.2564626 C19.8136054,30.5104308 21.2036281,31.823356 22.5732426,33.1952381 C23.9428571,34.5671202 25.2104308,36.0342404 26.3736961,37.6011338 C27.5346939,39.1657596 28.4802721,41.0160998 29.2104308,43.147619 C29.9405896,45.2814059 30.3056689,47.5988662 30.3056689,50.1045351 C30.3056689,55.2768707 29.0244898,59.2451247 26.4621315,62.0092971 C23.8997732,64.7734694 20.2829932,66.1566893 15.6117914,66.1566893 C10.9405896,66.1566893 7.21496599,64.7712018 4.43718821,62.0002268 C1.65941043,59.2292517 0.271655329,55.2496599 0.271655329,50.0659864" id="Fill-1"></path>
                <path d="M46.0825397,32.2333333 L50.8648526,32.2333333 C52.5020408,32.2333333 53.7310658,31.7707483 54.5519274,30.8478458 C55.3705215,29.9249433 55.7809524,28.3603175 55.7809524,26.1539683 L55.7809524,16.5462585 C55.7809524,14.3399093 55.3705215,12.7843537 54.5519274,11.8750567 C53.7310658,10.9657596 52.5020408,10.5122449 50.8648526,10.5122449 L46.0825397,10.5122449 L46.0825397,32.2333333 Z M36.0258503,65.4396825 L36.0258503,1.35124717 L50.8421769,1.35124717 C60.8376417,1.35124717 65.8376417,6.64603175 65.8376417,17.2333333 L65.8376417,25.5575964 C65.8376417,36.1154195 60.8421769,41.3965986 50.8535147,41.3965986 L46.0825397,41.3965986 L46.0825397,65.4396825 L36.0258503,65.4396825 Z" id="Fill-4"></path>
                <path d="M80.585941,30.2222222 L84.5179138,30.2222222 C86.5451247,30.2222222 88.0575964,29.7006803 89.0553288,28.6575964 C90.0530612,27.6145125 90.5519274,25.8730159 90.5519274,23.4285714 L90.5519274,17.1269841 C90.5814059,12.7188209 88.8829932,10.5124717 85.4566893,10.5124717 L80.585941,10.5124717 L80.585941,30.2222222 Z M70.5292517,65.4399093 L70.5292517,1.34920635 L85.7038549,1.34920635 C90.878458,1.34920635 94.6585034,2.55782313 97.0371882,4.97278912 C99.4181406,7.3877551 100.608617,11.0997732 100.608617,16.1088435 L100.608617,21.1609977 C100.608617,27.7505669 98.4136054,32.0884354 94.0235828,34.1746032 C98.4725624,36.0544218 100.697052,40.600907 100.697052,47.8163265 L100.697052,57.6780045 L100.697052,58.0793651 C100.697052,61.3514739 101.055329,63.8049887 101.769615,65.4399093 L91.5746032,65.4399093 C90.9827664,63.6258503 90.6721088,61.0090703 90.6426304,57.5873016 L90.6426304,47.5487528 C90.6426304,44.6349206 90.1278912,42.5442177 89.1006803,41.2811791 C88.0712018,40.015873 86.3954649,39.3854875 84.0712018,39.3854875 L80.585941,39.3854875 L80.585941,65.4399093 L70.5292517,65.4399093 Z" id="Fill-6"></path>
                <polygon id="Fill-8" points="107.312925 65.4403628 117.369615 65.4403628 117.369615 1.34965986 107.312925 1.34965986"></polygon>
                <path d="M134.754422,56.278458 L140.520862,56.278458 C142.278231,56.278458 143.588889,55.8090703 144.452834,54.8702948 C145.31678,53.9315193 145.749887,52.3011338 145.749887,49.9768707 L145.749887,44.3895692 C145.749887,41.4689342 145.25102,39.4439909 144.25102,38.3124717 C143.253288,37.1786848 141.593424,36.614059 139.269161,36.614059 L134.754422,36.614059 L134.754422,56.278458 Z M134.754422,27.4507937 L138.704535,27.4507937 C140.738549,27.4507937 142.257823,26.9292517 143.260091,25.8861678 C144.264626,24.8430839 144.76576,23.1151927 144.76576,20.7024943 L144.76576,17.1265306 C144.795238,12.7183673 143.090023,10.5120181 139.647846,10.5120181 L134.754422,10.5120181 L134.754422,27.4507937 Z M124.697732,65.4417234 L124.697732,1.35102041 L139.895011,1.35102041 C145.078685,1.35102041 148.863265,2.55736961 151.246485,4.97006803 C153.629705,7.38276644 154.822449,11.092517 154.822449,16.0993197 L154.822449,18.3782313 C154.822449,24.9632653 152.647846,29.2693878 148.296372,31.2943311 C153.303175,33.2603175 155.804308,37.8362812 155.804308,45.0154195 L155.804308,50.2444444 C155.804308,55.1900227 154.509524,58.9609977 151.917687,61.5528345 C149.323583,64.1446712 145.525397,65.4417234 140.520862,65.4417234 L124.697732,65.4417234 Z" id="Fill-10"></path>
                <polygon id="Fill-11" points="161.838776 65.4405896 161.838776 1.34988662 189.280952 1.34988662 189.280952 10.5131519 171.895465 10.5131519 171.895465 28.3453515 185.704989 28.3453515 185.704989 37.5063492 171.895465 37.5063492 171.895465 56.2773243 189.280952 56.2773243 189.280952 65.4405896"></polygon>
                <polygon id="Fill-12" points="0 78.4902494 189.421769 78.4902494 189.421769 69.5922902 0 69.5922902"></polygon>
            </g>
        </g>
    </g>
</svg>