<?xml version="1.0" encoding="utf-8"?>
<!-- Generator: Adobe Illustrator 22.0.0, SVG Export Plug-In . SVG Version: 6.00 Build 0)  -->
<svg version="1.1" xmlns="http://www.w3.org/2000/svg" xmlns:xlink="http://www.w3.org/1999/xlink" x="0px" y="0px"
	 viewBox="0 0 24 24" style="enable-background:new 0 0 24 24;" xml:space="preserve">
<style type="text/css">
	.st0{fill:#E50C33;}
	.st1{fill:#FFFFFF;}
</style>
<g id="Слой_1">
	<path class="st0" d="M12,2C6.5,2,2,6.5,2,12s4.5,10,10,10s10-4.5,10-10S17.5,2,12,2z M16.7,15.3c0.4,0.4,0.4,1,0,1.4
		C16.5,16.9,16.3,17,16,17s-0.5-0.1-0.7-0.3L12,13.4l-3.3,3.3C8.5,16.9,8.3,17,8,17s-0.5-0.1-0.7-0.3c-0.4-0.4-0.4-1,0-1.4l3.3-3.3
		L7.3,8.7c-0.4-0.4-0.4-1,0-1.4s1-0.4,1.4,0l3.3,3.3l3.3-3.3c0.4-0.4,1-0.4,1.4,0s0.4,1,0,1.4L13.4,12L16.7,15.3z"/>
</g>
<g id="Слой_2">
	<path class="st1" d="M16.7,15.3c0.4,0.4,0.4,1,0,1.4C16.5,16.9,16.3,17,16,17s-0.5-0.1-0.7-0.3L12,13.4l-3.3,3.3
		C8.5,16.9,8.3,17,8,17s-0.5-0.1-0.7-0.3c-0.4-0.4-0.4-1,0-1.4l3.3-3.3L7.3,8.7c-0.4-0.4-0.4-1,0-1.4s1-0.4,1.4,0l3.3,3.3l3.3-3.3
		c0.4-0.4,1-0.4,1.4,0s0.4,1,0,1.4L13.4,12L16.7,15.3z"/>
</g>
</svg>
