<?xml version="1.0" encoding="utf-8"?>
<!-- Generator: Adobe Illustrator 22.0.0, SVG Export Plug-In . SVG Version: 6.00 Build 0)  -->
<svg version="1.1" id="Слой_1" xmlns="http://www.w3.org/2000/svg" xmlns:xlink="http://www.w3.org/1999/xlink" x="0px" y="0px"
	 viewBox="0 0 50 50" style="enable-background:new 0 0 50 50;" xml:space="preserve">
<style type="text/css">
	.st0{fill:#A9A9A9;}
</style>
<path class="st0" d="M9.6,40.4l2.5-9.9L27,15.6l7.4,7.4L19.5,37.9C19.5,37.9,9.6,40.4,9.6,40.4z M13.9,31.5l-1.5,6.1l6.1-1.5
	L31.6,23L27,18.4C27,18.4,13.9,31.5,13.9,31.5z"/>
<path class="st0" d="M17.8,37.3c-0.6-2.5-2.6-4.5-5.1-5.1l0.5-1.9c3.2,0.8,5.7,3.3,6.5,6.5C19.7,36.8,17.8,37.3,17.8,37.3z"/>
<path class="st0" d="M29.3,19.3l1.4,1.4l-13,13l-1.4-1.4L29.3,19.3z"/>
<path class="st0" d="M11,39l2.9-0.7c-0.3-1.1-1.1-1.9-2.2-2.2L11,39z"/>
<path class="st0" d="M35,22.4L27.6,15l3-3l0.5,0.1c3.6,0.5,6.4,3.3,6.9,6.9l0.1,0.5L35,22.4z M30.4,15l4.6,4.6l0.9-0.9
	c-0.5-2.3-2.3-4.1-4.6-4.6C31.3,14.1,30.4,15,30.4,15z"/>
</svg>
